<svg width="26" height="19" fill="none" xmlns="http://www.w3.org/2000/svg"><path d="M3 .75A2.25 2.25 0 00.75 3v13A2.25 2.25 0 003 18.25h20A2.25 2.25 0 0025.25 16V3A2.25 2.25 0 0023 .75H3z" fill="#fff" stroke="#CAD2DB" stroke-width=".5"/><path fill-rule="evenodd" clip-rule="evenodd" d="M14.93 7.321a3.065 3.065 0 00-1.053-.179c-1.162 0-1.98.578-1.986 1.407-.007.612.584.954 1.03 1.157.457.21.61.342.608.529-.003.286-.365.416-.703.416-.47 0-.72-.064-1.106-.223l-.151-.068-.165.954c.274.119.782.222 1.309.227 1.235 0 2.037-.571 2.046-1.456.004-.485-.309-.854-.987-1.158-.41-.197-.662-.329-.66-.528 0-.177.214-.367.674-.367.384-.006.662.077.879.164l.105.049.16-.924zm1.564 2.646l.468-1.191c-.007.011.096-.247.156-.407l.08.368.271 1.23h-.975zm1.449-2.747h-.908c-.282 0-.492.076-.616.354l-1.745 3.905h1.234s.202-.525.248-.64l1.504.002c.036.149.143.638.143.638h1.09l-.95-4.259zm-9.435 0l-1.15 2.906-.123-.591c-.214-.681-.882-1.419-1.628-1.788l1.052 3.727 1.244-.001 1.85-4.254H8.507z" fill="#00579F"/><path fill-rule="evenodd" clip-rule="evenodd" d="M6.29 7.217H4.395l-.015.088c1.474.353 2.45 1.206 2.855 2.23l-.412-1.959c-.071-.27-.278-.35-.533-.36z" fill="#F9A51A"/><path fill-rule="evenodd" clip-rule="evenodd" d="M10.228 7.216l-.734 4.262h1.174l.735-4.262h-1.175zM1 3a2 2 0 012-2h20a2 2 0 012 2v3H1V3z" fill="#00579F"/><path fill-rule="evenodd" clip-rule="evenodd" d="M25 16a2 2 0 01-2 2H3a2 2 0 01-2-2v-3h24v3z" fill="#F9A51A"/></svg>