<svg width="68" height="26" fill="none" xmlns="http://www.w3.org/2000/svg"><path d="M8.99 2.35c-1.76 0-3.31.37-4.65 1.11-1.32.72-2.34 1.72-3.06 3C.56 7.72.2 9.15.2 10.75c0 1.56.34 2.99 1.02 4.29.7 1.3 1.7 2.33 3 3.09 1.32.76 2.86 1.14 4.62 1.14.84 0 1.65-.09 2.43-.27.78-.18 1.65-.46 2.61-.84l.42-.18-.96-2.37-.42.18c-1.4.52-2.59.78-3.57.78-1.92 0-3.43-.53-4.53-1.59-1.08-1.08-1.62-2.5-1.62-4.26 0-1.06.23-2.03.69-2.91a5.06 5.06 0 011.98-2.07c.88-.52 1.9-.78 3.06-.78.6 0 1.17.04 1.71.12.54.06 1.21.24 2.01.54l.45.15.99-2.31-.48-.18c-1.48-.62-3.02-.93-4.62-.93zm13.086 16.92c1.18 0 2.22-.25 3.12-.75.9-.52 1.59-1.23 2.07-2.13.5-.9.75-1.94.75-3.12 0-1.82-.54-3.27-1.62-4.35-1.06-1.08-2.49-1.62-4.29-1.62-1.8 0-3.24.54-4.32 1.62-1.08 1.06-1.62 2.52-1.62 4.38 0 1.16.24 2.19.72 3.09.5.9 1.19 1.61 2.07 2.13.9.5 1.94.75 3.12.75zm0-9.72c.84 0 1.54.33 2.1.99.58.64.87 1.56.87 2.76 0 1.18-.28 2.09-.84 2.73-.54.64-1.25.96-2.13.96-.84 0-1.54-.32-2.1-.96-.56-.66-.84-1.57-.84-2.73 0-1.18.28-2.1.84-2.76.58-.66 1.28-.99 2.1-.99zm7.76.45h5.37l-5.37 7.53V19h9.42v-2.43h-5.61l5.4-7.56V7.48h-9.21V10zm15.386 9.09l-2.61 6.09h3.21l7.05-17.7h-3l-3.09 8.85-3.45-8.85h-3.27l5.16 11.61zM67.547 6.85c0-.88-.16-1.69-.48-2.43-.3-.74-.74-1.39-1.32-1.95-.56-.52-1.21-.92-1.95-1.2-.74-.28-1.54-.42-2.4-.42-.88 0-1.7.14-2.46.42-.74.28-1.38.68-1.92 1.2-.58.56-1.03 1.21-1.35 1.95-.3.74-.45 1.55-.45 2.43 0 .9.15 1.72.45 2.46.32.74.77 1.38 1.35 1.92.54.54 1.18.95 1.92 1.23.76.28 1.58.42 2.46.42.86 0 1.66-.14 2.4-.42.74-.28 1.39-.69 1.95-1.23.58-.54 1.02-1.18 1.32-1.92.32-.74.48-1.56.48-2.46zm-1.32 0c0 1.5-.44 2.68-1.32 3.54-.88.84-2.05 1.26-3.51 1.26s-2.63-.42-3.51-1.26c-.88-.86-1.32-2.04-1.32-3.54 0-1.44.45-2.61 1.35-3.51.86-.82 2.02-1.23 3.48-1.23s2.62.41 3.48 1.23c.9.9 1.35 2.07 1.35 3.51zm-2.34-1.29c0-.58-.2-1.05-.6-1.41-.4-.36-.91-.54-1.53-.54h-2.55V10h1.08V7.57h1.32l1.14 2.43h1.17l-1.29-2.64c.84-.32 1.26-.92 1.26-1.8zm-1.02.03c0 .38-.14.66-.42.84-.28.18-.62.27-1.02.27h-1.14V4.6h1.44c.36 0 .64.09.84.27.2.18.3.42.3.72z" fill="#17183B"/></svg>